<svg width="204" height="39" viewBox="0 0 204 39" fill="none" xmlns="http://www.w3.org/2000/svg">
<path d="M13.2539 1.67432H23.7416L36.732 37.7004H27.7063L25.3027 30.4373H11.3211L8.92371 37.7004H0.312988L13.2539 1.67432ZM23.0602 23.524L18.3088 9.04603L13.5574 23.524H23.0602Z" fill="white"/>
<path d="M29.2178 9.09429V1.67432H59.6341V9.09429H48.7313V37.7004H40.1763V9.09429H29.2178Z" fill="white"/>
<path d="M71.7757 1.67432V15.543H84.6608V1.67432H93.2158V37.7004H84.6608V22.969H71.7757V37.7064H63.2207V1.67432H71.7757Z" fill="white"/>
<path d="M122.895 1.67432V9.04H105.259V15.8989H122.895V22.9087H105.259V30.3287H122.895V37.6944H96.8091V1.67432H122.895Z" fill="white"/>
<path d="M158.038 1.67432V37.7004H148.331L134.814 13.2085V37.7004H126.463V1.67432H136.951L149.681 24.7426V1.67432H158.038Z" fill="white"/>
<path d="M160.559 26.1661H169.114C169.374 29.671 171.933 31.5531 176.213 31.5531C180.599 31.5531 182.631 29.6227 182.631 27.2821C182.631 25.6051 181.324 24.1331 178.245 23.7229L172.924 23.0654C166.035 22.2027 161.34 18.8487 161.34 12.3939C161.34 6.30108 167.082 0.914062 176.058 0.914062C184.979 0.914062 190.511 5.74006 190.876 12.4482H182.266C182.216 9.70341 180.128 7.72475 176.003 7.72475C171.982 7.72475 169.795 9.65515 169.795 11.7907C169.795 13.7211 171.257 14.9396 174.126 15.2955L178.927 15.9048C185.759 16.7675 191.136 19.9164 191.136 26.6789C191.136 33.942 184.508 38.4664 175.953 38.4664C167.082 38.4664 160.77 33.4835 160.559 26.1661Z" fill="white"/>
<path d="M203.532 9.88455L194.891 6.1263V5.43256L203.539 1.67432V4.11748L199.369 5.78245L203.539 7.43535V9.88455H203.532Z" fill="white"/>
<path d="M195.045 21.7322V19.5786H203.538V21.7322H195.045Z" fill="white"/>
<path d="M203.092 29.3452C202.696 30.0027 202.132 30.5215 201.414 30.9016L200.268 29.2607C201.191 28.7238 201.655 28.006 201.655 27.1071C201.655 26.4496 201.438 25.9066 200.998 25.4844C200.559 25.0621 199.989 24.851 199.276 24.851C198.564 24.851 197.994 25.0621 197.567 25.4783C197.139 25.8946 196.922 26.4375 196.922 27.1071C196.922 28.012 197.387 28.7299 198.31 29.2607L197.164 30.9016C196.445 30.5275 195.882 30.0087 195.485 29.3452C195.089 28.6876 194.884 27.9396 194.884 27.1011C194.884 25.8463 195.306 24.7906 196.148 23.934C196.99 23.0714 198.037 22.6431 199.289 22.6431C200.534 22.6431 201.575 23.0774 202.423 23.9401C203.266 24.8027 203.687 25.8644 203.687 27.1192C203.687 27.9456 203.489 28.6876 203.092 29.3452Z" fill="white"/>
<path d="M201.544 37.5494V33.9661H200.373V36.5239H198.521V33.9661H197.04V37.7002H195.045V31.8125H203.538V37.5494H201.544Z" fill="white"/>
<path d="M202.417 17.3586C201.575 18.2273 200.528 18.6616 199.289 18.6616C198.05 18.6616 197.003 18.2273 196.161 17.3586C195.318 16.4899 194.897 15.4343 194.897 14.1916C194.897 12.9489 195.318 11.8932 196.161 11.0366C197.003 10.1739 198.05 9.74561 199.289 9.74561C200.528 9.74561 201.575 10.1739 202.417 11.0366C203.26 11.8992 203.681 12.9489 203.681 14.1916C203.687 15.4343 203.26 16.4899 202.417 17.3586ZM200.999 12.5748C200.559 12.1586 199.989 11.9475 199.289 11.9475C198.577 11.9475 198.007 12.1586 197.573 12.5748C197.139 12.9911 196.923 13.534 196.923 14.2036C196.923 14.8551 197.139 15.392 197.573 15.8203C198.007 16.2426 198.577 16.4598 199.289 16.4598C199.995 16.4598 200.565 16.2486 200.999 15.8203C201.432 15.392 201.655 14.8551 201.655 14.2036C201.655 13.534 201.432 12.9911 200.999 12.5748Z" fill="white"/>
</svg>
